<?xml version="1.0"?>
<svg width="24" height="24" xmlns="http://www.w3.org/2000/svg" xmlns:svg="http://www.w3.org/2000/svg">
 <g class="layer">
  <title>Layer 1</title>
  <path d="m15,22c-0.41,0 -0.75,-0.34 -0.75,-0.75l0,-18.5c0,-0.41 0.34,-0.75 0.75,-0.75c0.41,0 0.75,0.34 0.75,0.75l0,18.5c0,0.41 -0.34,0.75 -0.75,0.75z" fill="#292D32" id="svg_1"/>
  <path d="m6.5,20l6,0l0,-16l-6,0c-2.21,0 -4,1.79 -4,4l0,8c0,2.21 1.79,4 4,4z" fill="#10b981" id="svg_2" opacity="0.4" transform="matrix(1 0 0 1 0 0)"/>
  <path d="m18,20l-3,0l0,-16l3,0c2.21,0 4,1.79 4,4l0,8c0,2.21 -1.79,4 -4,4z" fill="#10b981" id="svg_3" opacity="0.4" transform="matrix(1 0 0 1 0 0)"/>
  <path d="m5.75,13c-0.13,0 -0.26,-0.03 -0.38,-0.08c-0.12,-0.05 -0.23,-0.12 -0.33,-0.21c-0.09,-0.1 -0.16,-0.21 -0.22,-0.33c-0.05,-0.12 -0.07,-0.25 -0.07,-0.38c0,-0.26 0.11,-0.52 0.29,-0.71c0.05,-0.04 0.1,-0.08 0.15,-0.12c0.06,-0.04 0.12,-0.07 0.18,-0.09c0.06,-0.03 0.12,-0.05 0.18,-0.06c0.34,-0.07 0.68,0.04 0.91,0.27c0.18,0.19 0.29,0.45 0.29,0.71c0,0.13 -0.03,0.26 -0.08,0.38c-0.05,0.12 -0.12,0.23 -0.21,0.33c-0.1,0.09 -0.21,0.16 -0.33,0.21c-0.12,0.05 -0.25,0.08 -0.38,0.08z" fill="#292D32" id="svg_4"/>
  <path d="m9.25,13c-0.13,0 -0.26,-0.03 -0.38,-0.08c-0.12,-0.05 -0.23,-0.12 -0.33,-0.21c-0.19,-0.19 -0.29,-0.44 -0.29,-0.71c0,-0.13 0.03,-0.26 0.08,-0.38c0.05,-0.13 0.12,-0.23 0.21,-0.33c0.37,-0.37 1.04,-0.37 1.42,0c0.18,0.19 0.29,0.45 0.29,0.71c0,0.13 -0.03,0.26 -0.08,0.38c-0.05,0.12 -0.12,0.23 -0.21,0.33c-0.1,0.09 -0.21,0.16 -0.33,0.21c-0.12,0.05 -0.25,0.08 -0.38,0.08z" fill="#292D32" id="svg_5"/>
 </g>
</svg>